<svg xmlns="http://www.w3.org/2000/svg" aria-hidden="true" style="width:0;height:0;position:absolute;overflow:hidden"><defs><symbol id="icon-left" viewBox="0 0 32 32"><path d="M15.494 5.394c-.132.068-1.99 1.88-4.88 4.764-2.568 2.56-4.748 4.708-4.848 4.776-.234.16-.498.726-.498 1.066 0 .32.266.91.47 1.046.084.056 2.266 2.204 4.848 4.776 3.312 3.298 4.764 4.708 4.93 4.792.47.234.956.116 1.418-.346s.582-.948.346-1.418c-.082-.166-1.202-1.324-3.75-3.876l-3.634-3.638 15.944-.03.214-.114c.446-.238.584-.52.584-1.192 0-.576-.106-.86-.4-1.068-.386-.274-.084-.266-8.498-.266H9.896l3.632-3.64c2.548-2.552 3.67-3.71 3.752-3.876.236-.47.116-.956-.346-1.418-.452-.454-.978-.576-1.44-.338z"/></symbol><symbol id="icon-close" viewBox="0 0 30 30"><path d="m8.507 8.533-.746.748L14.48 16l-6.693 6.693.759.761.761.759L16 17.52l6.693 6.693.761-.759.759-.761L17.52 16l6.72-6.72-.761-.759-.759-.761L16 14.48l-3.347-3.347c-1.84-1.84-3.359-3.346-3.374-3.346s-.363.336-.772.747z"/></symbol><symbol id="icon-search" viewBox="0 0 32 32"><path fill="none" stroke-linejoin="round" stroke-linecap="round" stroke-width="2.667" d="M14.667 25.333c5.891 0 10.667-4.776 10.667-10.667S20.558 3.999 14.667 3.999 4 8.775 4 14.666s4.776 10.667 10.667 10.667zM28 28l-5.8-5.8"/></symbol></defs></svg>