<svg xmlns="http://www.w3.org/2000/svg" aria-hidden="true" style="position:absolute;width:0;height:0;overflow:hidden">
  <defs>
    <symbol id="icon-left" viewBox="0 0 32 32">
      <path
        d="M15.494 5.394c-0.132 0.068-1.99 1.88-4.88 4.764-2.568 2.56-4.748 4.708-4.848 4.776-0.234 0.16-0.498 0.726-0.498 1.066 0 0.32 0.266 0.91 0.47 1.046 0.084 0.056 2.266 2.204 4.848 4.776 3.312 3.298 4.764 4.708 4.93 4.792 0.47 0.234 0.956 0.116 1.418-0.346s0.582-0.948 0.346-1.418c-0.082-0.166-1.202-1.324-3.75-3.876l-3.634-3.638 15.944-0.030 0.214-0.114c0.446-0.238 0.584-0.52 0.584-1.192 0-0.576-0.106-0.86-0.4-1.068-0.386-0.274-0.084-0.266-8.498-0.266h-7.844l3.632-3.64c2.548-2.552 3.67-3.71 3.752-3.876 0.236-0.47 0.116-0.956-0.346-1.418-0.452-0.454-0.978-0.576-1.44-0.338z">
      </path>
    </symbol>
    <symbol id="icon-close" viewBox="0 0 30 30">
      <path
        d="M8.507 8.533l-0.746 0.748 6.719 6.719-6.693 6.693 0.759 0.761 0.761 0.759 6.693-6.693 6.693 6.693 0.761-0.759 0.759-0.761-6.693-6.693 6.72-6.72-0.761-0.759-0.759-0.761-6.72 6.72-3.347-3.347c-1.84-1.84-3.359-3.346-3.374-3.346s-0.363 0.336-0.772 0.747z">
      </path>
    </symbol>
    <symbol id="icon-search" viewBox="0 0 32 32">
      <path fill="none" stroke-linejoin="round" stroke-linecap="round" stroke-miterlimit="4" stroke-width="2.6667"
        d="M14.667 25.333c5.891 0 10.667-4.776 10.667-10.667s-4.776-10.667-10.667-10.667v0c-5.891 0-10.667 4.776-10.667 10.667s4.776 10.667 10.667 10.667v0zM28 28l-5.8-5.8">
      </path>
    </symbol>
  </defs>
</svg>